Coordinates
version=1
nRows=12
nColumns=24
inDegrees=yes

Units are S.I. units (second, meters, Newtons, ...)
Angles are in degrees.

endheader
time	pelvis_tilt	pelvis_list	pelvis_rotation	pelvis_tx	pelvis_ty	pelvis_tz	hip_flexion_r	hip_adduction_r	hip_rotation_r	knee_angle_r	ankle_angle_r	subtalar_angle_r	mtp_angle_r	hip_flexion_l	hip_adduction_l	hip_rotation_l	knee_angle_l	ankle_angle_l	subtalar_angle_l	mtp_angle_l	lumbar_extension	lumbar_bending	lumbar_rotation
      0.01000000	     91.47829254	     15.78002074	    -93.56048498	      0.35003456	      0.29065848	      1.01368448	      4.88664883	     -6.65128023	     -2.79154383	     -7.01738650	    -45.33201150	     -1.74545602	    -25.17324631	    -12.42177809	    -18.00872305	    -11.66185342	    -61.50661878	    -23.17613205	     -0.14557499	     73.45799169	      0.00000000	      0.00000000	      0.00000000
      0.02000000	     91.47100882	     15.76985719	    -93.55379808	      0.35003590	      0.29066554	      1.01368869	      4.87376679	     -6.64484732	     -2.78766748	     -7.01909666	    -45.33604252	     -1.74545602	    -25.17324631	    -12.43040064	    -18.01685722	    -11.66210662	    -61.51050421	    -23.17700512	     -0.14557499	     73.45799169	      0.00000000	      0.00000000	      0.00000000
      0.03000000	     91.46267693	     15.75931399	    -93.54772914	      0.35002141	      0.29068225	      1.01368978	      4.85910254	     -6.63886165	     -2.78305333	     -7.02121585	    -45.34065457	     -1.74545602	    -25.17324631	    -12.43851711	    -18.02480282	    -11.66291777	    -61.51379997	    -23.17750172	     -0.14557499	     73.45799169	      0.00000000	      0.00000000	      0.00000000
      0.04000000	     91.45423885	     15.74889906	    -93.54192982	      0.35000018	      0.29070732	      1.01369150	      4.84399886	     -6.63299833	     -2.77769806	     -7.02291263	    -45.34580271	     -1.74545602	    -25.17324631	    -12.44725522	    -18.03165850	    -11.66433505	    -61.51672049	    -23.17738010	     -0.14557499	     73.45799169	      0.00000000	      0.00000000	      0.00000000
      0.05000000	     91.44693189	     15.73922561	    -93.53647556	      0.34998094	      0.29073241	      1.01369293	      4.82950504	     -6.62721956	     -2.77163357	     -7.02351628	    -45.35136798	     -1.74545602	    -25.17324631	    -12.45706106	    -18.03669384	    -11.66630099	    -61.51908351	    -23.17636885	     -0.14557499	     73.45799169	      0.00000000	      0.00000000	      0.00000000
      0.06000000	     91.44193946	     15.73065481	    -93.53186849	      0.34997054	      0.29074948	      1.01369236	      4.81611526	     -6.62176710	     -2.76493267	     -7.02269205	    -45.35716334	     -1.74545602	    -25.17324631	    -12.46739146	    -18.03963504	    -11.66862250	    -61.52027021	    -23.17422330	     -0.14557499	     73.45799169	      0.00000000	      0.00000000	      0.00000000
      0.07000000	     91.43994224	     15.72325062	    -93.52861177	      0.34997251	      0.29075954	      1.01369305	      4.80399872	     -6.61696092	     -2.75769619	     -7.02033933	    -45.36297324	     -1.74545602	    -25.17324631	    -12.47728497	    -18.04052467	    -11.67103802	    -61.51962758	    -23.17075736	     -0.14557499	     73.45799169	      0.00000000	      0.00000000	      0.00000000
      0.08000000	     91.44084569	     15.71731700	    -93.52668090	      0.34998214	      0.29076503	      1.01369605	      4.79323919	     -6.61301986	     -2.75005989	     -7.01648603	    -45.36861571	     -1.74545602	    -25.17324631	    -12.48636175	    -18.03934893	    -11.67332680	    -61.51707508	    -23.16589120	     -0.14557499	     73.45799169	      0.00000000	      0.00000000	      0.00000000
      0.09000000	     91.44395569	     15.71343209	    -93.52553263	      0.34998869	      0.29076305	      1.01369693	      4.78393463	     -6.60993251	     -2.74224932	     -7.01128772	    -45.37400090	     -1.74545602	    -25.17324631	    -12.49502437	    -18.03601321	    -11.67537126	    -61.51323048	    -23.15973168	     -0.14557499	     73.45799169	      0.00000000	      0.00000000	      0.00000000
      0.10000000	     91.44838663	     15.71154016	    -93.52478202	      0.34998983	      0.29075444	      1.01369732	      4.77613536	     -6.60747345	     -2.73463975	     -7.00513575	    -45.37915550	     -1.74545602	    -25.17324631	    -12.50347143	    -18.03082316	    -11.67713014	    -61.50881946	    -23.15265249	     -0.14557499	     73.45799169	      0.00000000	      0.00000000	      0.00000000
      0.11000000	     91.45328718	     15.71073090	    -93.52454969	      0.34999333	      0.29074708	      1.01370379	      4.76970013	     -6.60536725	     -2.72775458	     -6.99877147	    -45.38419958	     -1.74545602	    -25.17324631	    -12.51117600	    -18.02466526	    -11.67855706	    -61.50425567	    -23.14531240	     -0.14557499	     73.45799169	      0.00000000	      0.00000000	      0.00000000
      0.12000000	     91.45789456	     15.71005926	    -93.52502966	      0.35000209	      0.29074622	      1.01371571	      4.76436605	     -6.60337527	     -2.72218021	     -6.99317825	    -45.38928097	     -1.74545602	    -25.17324631	    -12.51755518	    -18.01854600	    -11.67952465	    -61.49986408	    -23.13856435	     -0.14557499	     73.45799169	      0.00000000	      0.00000000	      0.00000000
